<?xml version="1.0" encoding="UTF-8"?>
<svg id="_レイヤー_1" xmlns="http://www.w3.org/2000/svg" width="1000" height="1000" version="1.1" viewBox="0 0 1000 1000">
  <!-- Generator: Adobe Illustrator 30.1.0, SVG Export Plug-In . SVG Version: 2.1.1 Build 136)  -->
  <defs>
    <style>
      .st0 {
        fill: #fff;
        fill-rule: evenodd;
      }
    </style>
  </defs>
  <path class="st0" d="M986.2,495.5l-68.2-1.3c-7.1-.1-12.9-5.8-13.1-13-7-201.5-165.3-367-366.7-385.6-6.9-.6-14,.2-20.9,0-7.3,0-13.2-6.1-13.2-13.5V13.5c0-7.5,6.2-13.6,13.7-13.5,248.9,4.6,465.8,210.1,480,459.4,0,1.6.4,3.1,1.1,4.5.7,1.7,1.1,3.5,1.1,5.4v12.8c0,7.5-6.2,13.6-13.7,13.5h0ZM741.5,495.7c-7.1,0-13-5.6-13.4-12.7-7.4-112.5-98.6-204-211.3-211.3-7.1-.5-12.7-6.2-12.7-13.4v-67.1c0-7.5,6.2-13.7,13.8-13.4,162,5.4,298.8,142.4,304.3,304.2.3,7.6-5.9,13.8-13.4,13.8h-67.3ZM526.2,722.5c6.8,3.8,35.8,19.3,41.3,19.3s6.5-1.7,9.8-4c44.1-30.9,82.4-115.3,147-98.2,26.7,7,64.6,52.5,85.2,72.9,20.7,20.4,69.4,62.9,82.6,85.2,27.3,46.1,0,73.5-29.9,104-40.5,41.2-75.3,91.9-137.6,97.7-10.2,1-26.8.7-37.1,0-211-15.3-457.9-232.5-570.9-402.3C60.5,512.5-29.9,337.6,9.8,236.8c11.7-29.7,78.4-95.3,104.7-117.8,47.1-40.2,79.2-21.2,118.2,14.7,38.3,35.3,72.3,78.2,111.3,113.3.6.6,1.2,1.2,1.7,1.9,54.7,72.7-42.3,124.2-83.9,173.3-2.1,2.5-3.3,5.7-3.1,8.9.6,12.3,12.1,32.3,16.6,40.7,48.4,89.9,161.4,201.7,250.9,250.8h0Z"/>
</svg>