<?xml version="1.0" encoding="UTF-8"?>
<svg id="_レイヤー_1" xmlns="http://www.w3.org/2000/svg" width="1000" height="1000" version="1.1" viewBox="0 0 1000 1000">
  <!-- Generator: Adobe Illustrator 30.1.0, SVG Export Plug-In . SVG Version: 2.1.1 Build 136)  -->
  <defs>
    <style>
      .st0 {
        fill: #0087ac;
        fill-rule: evenodd;
      }
    </style>
  </defs>
  <path class="st0" d="M767.1,131.5c-175.3-175.3-460.5-175.4-635.7-.1-175.2,175.2-175.2,460.4.1,635.7,160.9,160.9,414.1,173.7,590.2,39.3l176.1,176.1c23.4,23.4,61.3,23.4,84.7,0,23.4-23.4,23.4-61.3,0-84.7l-176.1-176.1c134.4-176.1,121.6-429.3-39.3-590.2ZM682.5,682.5c-128.5,128.5-337.7,128.5-466.3,0-128.6-128.6-128.6-337.8,0-466.3,128.5-128.5,337.7-128.5,466.3,0,128.6,128.6,128.6,337.7,0,466.3Z"/>
</svg>