<?xml version="1.0" encoding="UTF-8"?>
<svg id="_レイヤー_1" xmlns="http://www.w3.org/2000/svg" width="1000" height="1000" version="1.1" viewBox="0 0 1000 1000">
  <!-- Generator: Adobe Illustrator 30.1.0, SVG Export Plug-In . SVG Version: 2.1.1 Build 136)  -->
  <defs>
    <style>
      .st0 {
        fill: #fff;
        fill-rule: evenodd;
      }
    </style>
  </defs>
  <path class="st0" d="M999.9,748.7c0,17-5,30.1-11.7,42.5l-291.6-327.5,289.7-259.2c9.4,15.9,13.1,31.5,13.6,49.9v494.3ZM421.3,508.3L45.9,172.7c9.8-6,20.5-10.7,33.1-10.7h837.8c14.2,0,26.1,3.5,37.3,10.6l-371.6,332.7c-46.2,41.3-114.8,44.6-161.3,3ZM12,791C3.7,778,0,762.7,0,745.6V254.4c.5-18.6,4.2-34.7,13.8-49.7l289.6,259L12,791ZM397.1,547.2c60.9,54,151.3,49.3,211.5-4.6l54.9-49.1,295.2,331.6c-12.9,8.5-25.9,13-41.7,13H83.1c-16,0-29.7-4.6-41.5-13.2l295-331.3,60.5,53.7Z"/>
</svg>