<?xml version="1.0" encoding="UTF-8"?>
<svg id="_レイヤー_1" xmlns="http://www.w3.org/2000/svg" width="1000" height="1000" version="1.1" viewBox="0 0 1000 1000">
  <!-- Generator: Adobe Illustrator 30.1.0, SVG Export Plug-In . SVG Version: 2.1.1 Build 136)  -->
  <defs>
    <style>
      .st0 {
        fill: #63757a;
        fill-rule: evenodd;
      }
    </style>
  </defs>
  <path class="st0" d="M819,1000H181C81.2,1000,0,918.8,0,819V181C0,81.2,81.2,0,181,0h92.5C299.6,0,320.8,21.1,320.8,47.2s-21.1,47.1-47.2,47.1h-92.5c-47.8,0-86.7,38.9-86.7,86.7v637.9c0,47.8,38.9,86.7,86.7,86.7h637.9c47.8,0,86.7-38.9,86.7-86.7v-92.5c0-26,21.1-47.2,47.1-47.2s47.2,21.1,47.2,47.2v92.5c0,99.8-81.2,181-181,181ZM970.9,392.6c-5.8,2.4-12,3.6-18,3.6-12.3,0-24.3-4.8-33.4-13.8l7.4-242.6-427.8,427.8c-9.2,9.2-21.3,13.8-33.3,13.8s-24.2-4.6-33.4-13.8c-18.4-18.4-18.4-48.3,0-66.7L860.2,73.1l-242.6,7.4c-13.5-13.5-17.5-33.8-10.3-51.4C614.7,11.5,631.9,0,650.9,0h271C965,0,1000,35,1000,78.1v271c0,19.1-11.5,36.3-29.1,43.6Z"/>
</svg>