<?xml version="1.0" encoding="UTF-8"?>
<svg id="_レイヤー_1" xmlns="http://www.w3.org/2000/svg" width="1000" height="1000" version="1.1" viewBox="0 0 1000 1000">
  <!-- Generator: Adobe Illustrator 30.1.0, SVG Export Plug-In . SVG Version: 2.1.1 Build 136)  -->
  <defs>
    <style>
      .st0 {
        fill: #334;
        fill-rule: evenodd;
      }
    </style>
  </defs>
  <path class="st0" d="M978.1,999.6l-178,.2V179.5s121,60.6,121,60.6c18.2,9.1,28.8,25.8,29.1,47.1v661.2s23.5,1.7,23.5,1.7c14.4-1.1,24.9,9.4,26.2,22.3,1.1,11.3-7.1,27.3-21.8,27.3ZM499.9,848.1c-.7-27.6-21.8-48.5-49-49.5h-101c-27.3.5-49.8,21.4-49.8,50.6l-.3,150.7H26.6c-14.9,0-25.4-9.6-26.5-23.2-1.1-13.2,8.8-26.5,23.8-26.8l25.9-.6V188c0-21.5,15.9-41.9,36.4-46.7L687.3,1.6c16.5-3.9,31-.6,43.4,9,11.8,9.2,19.4,23.1,19.4,40.8v948.2s-249.9.2-249.9.2l-.3-151.8ZM299.9,320.2c0-13.4-11.5-24.6-24.7-24.6h-49.6c-15.1,0-25.7,11.7-25.7,26.5v47.5c0,14.7,10.6,26.6,25.7,26.5l50.9-.2c13.3,0,23.3-12.7,23.3-24.4v-51.3ZM299.9,471.1c0-13.4-11.5-24.6-24.7-24.6h-49.6c-15.1,0-25.7,11.6-25.7,26.5v47.5c0,14.7,10.6,26.6,25.7,26.6l50.9-.3c13.3,0,23.3-12.7,23.3-24.4v-51.3ZM299.9,622.1c0-13.4-11.5-24.6-24.7-24.6h-49.6c-15.1,0-25.7,11.6-25.7,26.5v47.5c0,14.7,10.6,26.6,25.7,26.6l50.9-.3c13.3,0,23.3-12.7,23.3-24.3v-51.3ZM349.9,671.4c0,14.7,10.6,26.6,25.7,26.6l50.9-.3c13.3,0,23.3-12.7,23.3-24.3v-51.3c0-13.4-11.5-24.6-24.7-24.6h-49.6c-15.1,0-25.7,11.6-25.7,26.5v47.5ZM449.9,320.2c0-13.4-11.5-24.6-24.7-24.6h-49.6c-15.1,0-25.7,11.7-25.7,26.5v47.5c0,14.7,10.6,26.6,25.7,26.5l50.9-.2c13.3,0,23.3-12.7,23.3-24.4v-51.3ZM449.9,471.1c0-13.4-11.5-24.6-24.7-24.6h-49.6c-15.1,0-25.7,11.6-25.7,26.5v47.5c0,14.7,10.6,26.6,25.7,26.6l50.9-.3c13.3,0,23.3-12.7,23.3-24.4v-51.3ZM600,320.2c0-13.4-11.5-24.6-24.7-24.6h-49.6c-15.1,0-25.7,11.7-25.7,26.5v47.5c0,14.7,10.6,26.6,25.7,26.5l50.9-.2c13.2,0,23.3-12.7,23.3-24.4v-51.3ZM600,471.1c0-13.4-11.5-24.6-24.7-24.6h-49.6c-15.1,0-25.7,11.6-25.7,26.5v47.5c0,14.7,10.6,26.6,25.7,26.6l50.9-.3c13.2,0,23.3-12.7,23.3-24.4v-51.3ZM525.7,698l50.9-.3c13.2,0,23.3-12.7,23.3-24.3v-51.3c0-13.4-11.5-24.6-24.7-24.6h-49.6c-15.1,0-25.7,11.6-25.7,26.5v47.5c0,14.7,10.6,26.6,25.7,26.6ZM450.1,999.6l-100-29.5-.2-121h100.1c0-.1.1,150.6.1,150.6Z"/>
</svg>