<?xml version="1.0" encoding="UTF-8"?>
<svg id="_レイヤー_1" data-name="レイヤー_1" xmlns="http://www.w3.org/2000/svg" width="1000" height="1000" version="1.1" viewBox="0 0 1000 1000">
  <!-- Generator: Adobe Illustrator 30.1.0, SVG Export Plug-In . SVG Version: 2.1.1 Build 136)  -->
  <defs>
    <style>
      .st0 {
        fill: #63757a;
      }

      .st0, .st1, .st2 {
        fill-rule: evenodd;
      }

      .st1 {
        fill: #0087ac;
      }

      .st2 {
        fill: #7fa329;
      }
    </style>
  </defs>
  <path class="st0" d="M661.2,440.5c-29.2-46.9-85-78.7-139.8-84.4-70.1-7.3-144.6,24.4-182.5,84.4-2,.5-2.3-.5-3.5-1.3-4.2-2.9-14.2-13.7-18-18-90.8-101.4-81.7-257.5,20.1-347.5,3.7-3.3,17.6-15.2,20.9-16.6,1.1-.5,1.9-1.1,3.1-.5,66.2,65,169.2,75.3,247,24.3,11.1-7.2,20.6-16.5,31.1-24.5,41.2,28.1,74.1,70.1,91,117.2,29.3,81.8,14.2,171.3-40.3,238.5-5.6,6.9-18.9,22.5-25.6,27.1-1.2.8-1.5,1.9-3.5,1.3Z"/>
  <path class="st2" d="M1000,679c-92.2,24.7-151.8,109.4-145.9,204.7.8,12.3,4.6,24.3,5.4,36.5-141.1,68.7-316.6-19.9-344.3-173.2,55.8-3.8,110-33.6,142.8-78.6,35.9-49.2,47.5-110.6,31.5-169.6-3.1-11.4-8.6-21.9-11.8-33.3,14.2-3.1,28.1-7.5,42.6-9.5,141.1-19.2,267.2,82.1,279.6,223Z"/>
  <path class="st1" d="M322.2,465.5c-4.1,13.1-10,25.4-13.2,38.8-12.2,50.7-4.3,103.6,22.4,148.3,32.1,53.8,90.5,90.1,153.4,94.4-10.8,59.7-46.7,114.1-95.4,149.5-71.5,52.1-169.3,62.6-249.2,22.9,27-104.3-35.7-213.7-140.1-240.5,8.7-100.6,78.1-187,175.3-215.3,49.1-14.3,98.1-12.9,146.9,1.8Z"/>
</svg>