<?xml version="1.0" encoding="UTF-8"?>
<svg id="_レイヤー_1" data-name="レイヤー_1" xmlns="http://www.w3.org/2000/svg" width="1000" height="1000" version="1.1" viewBox="0 0 1000 1000">
  <!-- Generator: Adobe Illustrator 30.1.0, SVG Export Plug-In . SVG Version: 2.1.1 Build 136)  -->
  <defs>
    <style>
      .st0 {
        fill-rule: evenodd;
      }

      .st0, .st1 {
        fill: #fff;
      }
    </style>
  </defs>
  <path class="st0" d="M661.2,440.5c-29.2-46.9-85-78.7-139.8-84.4-70.1-7.3-144.6,24.4-182.5,84.4-2,.5-2.3-.5-3.5-1.3-4.2-2.9-14.2-13.7-18-18-90.8-101.4-81.7-257.5,20.1-347.5,3.7-3.3,17.6-15.2,20.9-16.6,1.1-.5,1.9-1.1,3.1-.5,66.2,65,169.2,75.3,247,24.3,11.1-7.2,20.6-16.5,31.1-24.5,41.2,28.1,74.1,70.1,91,117.2,29.3,81.8,14.2,171.3-40.3,238.5-5.6,6.9-18.9,22.5-25.6,27.1-1.2.8-1.5,1.9-3.5,1.3Z"/>
  <path class="st0" d="M1000,679c-92.2,24.7-151.8,109.4-145.9,204.7.8,12.3,4.6,24.3,5.4,36.5-141.1,68.7-316.6-19.9-344.3-173.2,55.8-3.8,110-33.6,142.8-78.6,35.9-49.2,47.5-110.6,31.5-169.6-3.1-11.4-8.6-21.9-11.8-33.3,14.2-3.1,28.1-7.5,42.6-9.5,141.1-19.2,267.2,82.1,279.6,223Z"/>
  <path class="st0" d="M322.2,465.5c-4.1,13.1-10,25.4-13.2,38.8-12.2,50.7-4.3,103.6,22.4,148.3,32.1,53.8,90.5,90.1,153.4,94.4-10.8,59.7-46.7,114.1-95.4,149.5-71.5,52.1-169.3,62.6-249.2,22.9,27-104.3-35.7-213.7-140.1-240.5,8.7-100.6,78.1-187,175.3-215.3,49.1-14.3,98.1-12.9,146.9,1.8Z"/>
  <g>
    <path class="st1" d="M483.8,486.9c-4.2,2.9-8.6,3.3-13.3,1.2-1.8-.8-3.5-1.5-5.1-2.3-1.7-.8-3.6-1.8-5.8-3-1.8-1.1-3.3-1.5-4.6-1.3-1.3.2-1.9,1.2-1.7,2.9.4,6.9.9,13.3,1.3,19.3s.9,12.4,1.3,19.3c.2,3.7.2,6.8-.2,9.4s-1.1,4.7-2.3,6.4c-1.2,1.7-3,3.1-5.3,4.1-2.3,1.1-5.5,2-9.5,2.8-5.5,1.1-9.5.8-11.9-.8-2.4-1.6-3.4-4.9-3-9.8.4-6.6.8-13.5,1.2-20.7.3-7.2.7-14.5,1.2-21.8.2-1.8,0-2.9-.8-3.2-.8-.3-2.4.2-4.8,1.4-5.1,2.5-10.4,4.7-15.9,6.7-5.5,2-11.6,4.1-18.2,6.2-3.8,1.2-8,2-12.6,2.2-4.6.2-9.1,0-13.4-.8-4.3-.8-8.2-2.1-11.6-4.1-3.4-2-5.7-4.7-6.8-8.3-.7-2,.9-3.3,4.6-3.9,13.3-2.1,24.4-4.1,33.3-6,9-1.8,16.8-3.9,23.6-6.2,6.7-2.3,12.9-4.9,18.4-7.9,5.5-3,11.6-6.8,18.3-11.4,3.3-2.3,2.3-3.6-3-3.9-5.1-.2-9.4-.1-12.8.1-3.4.2-6.6.5-9.5.8-3.1.3-6.9.8-11.3,1.5-4.4.7-7.6,1.3-9.6,1.7-5.1,1.2-9.1,1.6-12.1,1.3-3-.4-5.1-1.2-6.3-2.4-1.2-1.2-1.6-2.7-1.2-4.5.4-1.8,1.5-3.5,3.3-5.2,3.8-3.2,8-5.5,12.8-7,4.8-1.5,9.2-1.7,13.4-.8,4.4,1.1,8.5,1.8,12.1,2.2,3.6.4,8.8.7,15.4.8,6.2.2,10.6.1,13.3-.1s5.2-.7,7.6-1.5c5.5-1.8,9.9-2.3,13.1-1.5s6,2.7,8.5,5.6c1.8,2.1,2.3,4.2,1.7,6.1-.7,1.9-2.2,3.6-4.6,4.9-3.1,2-6.5,4.5-10.3,7.6-1.5,1.2-1.3,2.3.7,3.2,4.4,2.2,8.4,4.1,11.9,5.7,3.5,1.7,6.5,3.3,9,4.8,2.4,1.4,3.9,3,4.5,4.8.5,1.8-.4,3.6-2.8,5.3ZM469.9,422c2,.5,3.4,1.1,4.2,1.8.8.8.9,1.5.3,2.3-.6.8-1.7,1.4-3.5,2-1.8.5-4.3.8-7.6.8s-7.7,0-11.1-.1c-3.4,0-7.1-.2-11.1-.3s-8.6-.4-13.8-.7c-5.2-.3-11.6-.8-19.1-1.4-4.4-.3-7.9-1.1-10.5-2.3s-4.1-2.6-4.8-4.3c-.7-1.6-.4-3.3.8-5.2,1.2-1.8,3.4-3.5,6.5-5.1,1.8-.9,4-1.6,6.6-2,2.6-.4,5.4-.5,8.1-.5,2.8,0,5.4.3,8,.8s4.6,1.1,6.1,1.8c2.2.9,5,2,8.3,3.1,3.3,1.2,6.9,2.3,10.8,3.5,3.9,1.1,7.7,2.2,11.4,3.2,3.8,1,7.2,1.8,10.3,2.4ZM646.1,455.8c-.7,1.7-1.3,4-1.8,7-.6,3-1.1,6.2-1.5,9.5-.5,3.4-.8,6.6-1.2,9.8-.3,3.1-.5,5.7-.5,7.7,0,9.2-4.8,14.6-14.3,16.1-3.1.5-5.8.5-8.1.1-2.3-.4-5.9-1.4-10.8-3.1-2-.8-4.7-1.3-8.1-1.6-3.4-.3-7.3-.5-11.5-.7-4.6-.2-7.6.1-9,.8-1.3.7-2,2.3-2,4.7,0,5.7,0,11.4-.2,17.2-.1,5.8,0,11.6.2,17.5,0,2.6-1.3,4.8-4,6.5s-7.2,3.2-13.6,4.3c-4.6.8-8.1.2-10.3-1.7-2.2-1.9-3.2-5.8-3-11.6.2-5.7.4-11.2.5-16.7.1-5.4.3-10.8.5-16.2,0-2.1-.5-3.4-1.5-3.9-1-.5-2.9-.6-5.8-.5-2.9.2-6.1.3-9.6.3-3.5,0-6.7.2-9.6.3-2,.2-3.5.4-4.5.8-1,.4-2,1-3.2,1.7-2,1.5-5.5,2.5-10.6,2.8-3.5.2-6.4-.7-8.6-2.4-2.2-1.8-3.5-4.2-4-7.2-1.1-8.9-2.2-17.1-3.2-24.7-1-7.6-1.8-13.4-2.5-17.4-1.1-5.7-1.4-9.7-.8-12.2.5-2.4,1.8-4.5,3.8-6.2,2.4-2,5.5-2.9,9.1-2.8,3.6.2,6.9,1,9.8,2.5,1.8,1.1,3.3,1.7,4.5,2,1.2.2,2.8.3,4.8.3,4.2-.2,8.5-.3,12.9-.3,4.4,0,8.4-.1,11.9-.1s5-.3,5.6-1c.7-.7.9-1.9.7-3.6-.2-2.3-.3-4.4-.3-6.4s-.1-3.8-.3-5.5c-.4-5.7.6-9.5,3.2-11.5,2.5-2,7.2-2.1,14.1-.5,4.4,1.1,7.9,2.2,10.5,3.3,2.5,1.1,4.4,2.4,5.5,3.8,1.1,1.4,1.7,3,1.8,4.8.1,1.8,0,4.1-.2,6.7-.2.8-.3,1.6-.3,2.5s-.1,1.9-.3,3c-.2,1.7,0,2.8.8,3.3.8.5,2.5.9,5.1,1,3.3.2,6.7.2,10.1.2s7,0,10.8.2c3.8,0,6.7-.5,9-1.6,2.7-1.4,6-2,10-2,4,0,8.1,1,12.3,2.6,4.6,1.8,7.5,4,8.6,6.5,1.1,2.5.8,6.2-1,11.1ZM547.9,456.7c0-3.1-.5-4.9-1.5-5.6s-3-1-6.1-.8-6.5.3-10.3.3c-3.8,0-7.1.2-10,.3-3.1.2-5.1.6-6.1,1.3-1,.7-1.4,2.4-1.2,5.2.4,2.9,1,4.7,1.8,5.4.8.7,2.5,1,5.1,1h10.5c3.9,0,7.2,0,10.1-.2,3.1-.2,5.1-.6,6.1-1.3s1.5-2.6,1.5-5.6ZM547.5,481.1c0-2.1-.4-3.6-1.3-4.4-.9-.8-2.8-1.1-5.6-.9-2.9.2-6.1.2-9.6.2h-10c-3.1,0-5,.3-5.8,1-.8.7-1.1,2.3-.8,4.7.2,3.2.7,5.3,1.5,6.1.8.8,2.8,1.1,6.1.8,2.9-.2,6-.2,9.5-.2s6.5,0,9.1-.2c3.3-.2,5.3-.6,6-1.4.7-.8,1-2.7,1-5.7ZM611.9,484.6c.4-3.8.3-6.2-.5-7.1-.8-.9-2.4-1.4-4.8-1.4h-20.6c-3.3,0-5.5.3-6.5.9-1,.6-1.5,2.1-1.5,4.6s.4,4.3,1.2,5.1c.8.8,2.5,1.2,5.1,1.4,2.9.2,5.7.2,8.5.2s5.7,0,8.8.2c3.5.2,6.1-.1,7.6-.9,1.5-.8,2.4-1.8,2.7-3ZM614.9,454.4c.2-3.2-2.1-4.8-7-4.8s-6.4,0-10-.1c-3.5,0-7.3,0-11.3.1-2.9.2-4.8.6-5.8,1.4-1,.8-1.6,2.8-1.8,6-.2,2.8,0,4.5.8,5.3.8.8,3,1.2,6.8,1.2h20.9c2.9,0,4.7-.5,5.5-1.5.8-1,1.4-3.5,1.8-7.5Z"/>
    <path class="st1" d="M647.4,576.6c-1.8,2.9-4.3,5.4-7.5,7.6-3.2,2.1-6.7,3.9-10.6,5.3-3.9,1.4-7.7,2.3-11.6,2.8-3.9.5-7.5.5-10.8,0-4.6-.8-8.8-1.5-12.6-2.1-3.8-.6-7.5-1.2-11.3-1.7-3.8-.5-7.6-1.1-11.6-1.6-4-.5-8.5-1.1-13.6-1.7-2.4-.3-6.2-.5-11.3-.7-5.1-.1-11.2-.2-18.3-.2s-2.9.6-3.3,1.8c-.7,2.6-1.2,5.1-1.7,7.4-.5,2.3-.9,4.7-1.3,7.4-.5,1.7.7,2.5,3.3,2.5,14.4.2,27.4.6,39.2,1.4,1.8,0,4.3-.2,7.5-.6,3.2-.4,5.7-1,7.5-2,.7-.5,1.9-.8,3.6-.9,1.8-.2,3.6-.2,5.6,0,2,.2,3.9.4,5.6.7,1.8.3,3.1.8,4,1.4,2.7,1.7,4.6,3.2,6,4.6s2.2,2.8,2.6,4.3c.4,1.5.5,3,.2,4.7-.3,1.7-.9,3.8-1.8,6.2-1.1,2.9-1.9,5.5-2.5,7.8-.6,2.3-1,5.2-1.3,8.7-.3,3.5-.5,8.2-.5,14.1v23.8c0,5.7-2.1,10-6.3,13.1-4.2,3.1-9.5,5-15.9,5.7-4.6.5-9.7-1.1-15.3-4.8-1.5-.9-7-1.7-16.3-2.3-9.3-.6-20.8-1-34.5-1.2-13.7-.2-28.8,0-45.3.2-16.5.3-32.6.9-48.3,1.8-1.1,0-1.8.3-2,.9-1.8,1.7-4.2,3-7.3,3.8-3.1.8-6.1,1.2-9,1-3.3,0-5.9-.3-7.8-1-1.9-.7-3.4-2-4.5-3.8-1.1-1.8-1.9-4.3-2.3-7.5-.5-3.1-.8-7.1-1-11.8-.2-6.9-.4-12.6-.7-17.2-.2-4.6-.5-8.6-.8-12.1-.3-3.4-.8-6.7-1.3-9.7-.6-3-1.3-6.3-2.2-10-1.5-6.1-1.1-11,1.5-14.5,2.5-3.5,6.4-5.8,11.4-6.9,7.5-1.4,13.4-.7,17.6,2.1.7.5,1.5.7,2.7.7,6.2-.3,12.7-.5,19.6-.7,6.9-.2,13.8-.2,20.9-.2s3.3-.8,3.3-2.3v-6.6c0-2.2-.1-4.6-.3-7.2,0-1.4-1.1-2.1-3.3-2.1-11.3.3-21.8.7-31.5,1.2-9.7.5-17.6.9-23.6,1.4-3.8.3-7.9.7-12.3,1.3-4.4.5-8.7,1.1-12.8,1.7s-7.9,1.3-11.5,2.1-6.4,1.5-8.6,2.3c-1.8.8-4.3,1.1-7.6,1-3.3,0-5.9-1.3-7.6-3.6-1.8-2.5-2-5-.7-7.6,1.3-2.6,3.9-5.1,7.6-7.4,2.7-1.7,5.4-3.2,8.3-4.6,2.9-1.4,5.8-2.5,8.8-3.3,3-.8,5.7-1.4,8.3-1.6s4.8-.1,6.8.3c3.8,1.2,9.7,2.1,17.9,2.8,8.2.6,17.9.8,29.2.5,5.3-.2,13.7-.3,25.2-.6s24.6-.4,39.3-.6c14.7-.2,30.1-.3,46.3-.3s31.5-.1,46.1-.1,10.6,0,16.6-.1c6,0,11.9-.2,17.8-.3,5.9-.1,11.5-.3,16.8-.5,5.3-.2,10-.3,13.9-.5,2.7-.2,4.1.2,4.3,1.2.2.9-.9,3.2-3.3,6.9ZM417.8,654.1c12.2-1.5,21.1-5.2,26.9-11,2.9-2.8,5.2-5.9,7-9.3,1.8-3.4,3.2-8,4.3-13.7.4-1.7-.8-2.5-3.6-2.5-5.3.3-10.9.6-16.9.8-6,.2-12.4.5-19.2.8-1.8,0-2.8.7-3,2.1-.7,4.9-.9,10.4-.7,16.6.2,6.1.7,12.3,1.3,18.6.4-1.4,1.8-2.1,4-2.3ZM569.1,660.7c.2-1.2-.2-2.1-1.3-2.5-1.1-.5-2.4-.3-4,.5-10,5.2-19.8,7.8-29.5,7.7-9.7,0-18.5-2.3-26.2-6.8-2.4-1.4-4.4-2.8-6-4.4-1.5-1.5-2.8-3.7-3.6-6.5-.9-2.8-1.5-6.6-1.8-11.3-.3-4.7-.5-10.8-.5-18.5s-1.1-2.3-3.3-2.3h-3.6c-1.3,0-2.5,0-3.6.2-2,.3-3,1-3,2.1-1.1,9.7-3.3,17.5-6.6,23.6-3.3,6.1-7.3,10.7-11.9,13.9-4.4,2.9-8.8,5.1-13.3,6.7-4.4,1.5-8.6,2.5-12.4,3-3.9.5-7.3.5-10.3.1-3-.4-5.3-1-6.8-2-4.2-2.5-6.5-4.6-7-6.4.4,2.6.9,5.2,1.3,7.8.4,2.6.9,5.1,1.3,7.4.2,1.1,1.2,1.6,3,1.6,11.9-.5,22-.8,30.2-1,8.2-.2,15.6-.3,22.4-.3s13.5.1,20.2.3c6.7.2,14.8.6,24.1,1,5.3.3,9.8.5,13.6.7,3.8.2,7.2.2,10.3.2h18.6c3.1-.2,5.1-.5,6-1.1.9-.6,1.8-2.5,2.7-5.5.4-1.2.7-2.5.8-3.8.1-1.3.3-2.7.5-4.3ZM497.4,586.5c0-1.8-1.2-2.6-3.6-2.3-1.3.2-2.5.2-3.6.2h-3.3c-1.1,0-1.9.1-2.5.3-.6.2-.8.9-.8,2,.2,2.5.3,4.8.3,7.1v6.9c0,1.5,1.1,2.3,3.3,2.3h6c1.5,0,2.5-.2,2.8-.5.3-.3.5-.8.5-1.6.2-2.3.4-4.6.5-7,.1-2.4.3-4.9.5-7.5ZM573.1,624c0-1.8-.6-3.1-1.8-3.8-1.2-.7-3.6-1.2-7.1-1.5-8.4-.5-15.6-.8-21.6-1-6-.2-12.1-.5-18.3-.8-2.4,0-3.6.8-3.6,2.3,0,3.1.2,5.8.5,8.3.3,2.5.9,4.4,1.8,5.7,3.1,5.4,8.8,8.7,17.3,9.9,8.4,1.2,18.4,0,29.9-3.4,1.3-.2,2-.7,2-1.6.4-3.4.7-6.3.8-8.9.1-2.5.2-4.3.2-5.2Z"/>
  </g>
</svg>