<?xml version="1.0" encoding="UTF-8"?>
<svg id="神西衡機工業株式会社" xmlns="http://www.w3.org/2000/svg" width="100mm" height="88.8mm" version="1.1" viewBox="0 0 283.5 251.6">
  <!-- Generator: Adobe Illustrator 30.1.0, SVG Export Plug-In . SVG Version: 2.1.1 Build 136)  -->
  <g class="white-st2">
    <g class="white-st2">
      <text class="white-st1" transform="translate(103.9 154.4)"><tspan x="0" y="0">S</tspan></text>
    </g>
    <g class="white-st2">
      <text class="white-st1" transform="translate(128.3 154.4)"><tspan x="0" y="0">K</tspan></text>
    </g>
    <g class="white-st2">
      <text class="white-st1" transform="translate(154.6 154.4)"><tspan x="0" y="0">K</tspan></text>
    </g>
  </g>
  <path class="white-st0" d="M187.4,108.8c-8.3-13.2-24.1-22.2-39.5-23.9-19.9-2-41.1,7-51.8,23.9-.5,0-.7,0-1-.3-1.2-.8-4.1-3.9-5.1-5.1-25.8-28.7-23.1-73,5.8-98.4,1-.8,4.9-4.2,5.9-4.8.3,0,.5-.3.8,0,18.7,18.5,47.9,21.4,69.9,7,3.1-2,5.8-4.8,8.8-7,11.7,8,21,19.9,25.8,33.3,8.3,23.3,4.1,48.5-11.4,67.6-1.5,2-5.4,6.5-7.3,7.6-.3.2-.3.5-1,.3v-.2Z"/>
  <path class="white-st0" d="M283.5,176.3c-26.1,7-42.9,31.1-41.4,58.1.2,3.6,1.4,7,1.5,10.4-40.1,19.5-89.8-5.6-97.6-49.1,15.8-1,31.2-9.5,40.4-22.2,10.2-13.9,13.4-31.4,9-48-.8-3.2-2.4-6.3-3.4-9.5,4.1-.8,8-2.2,12.1-2.7,40.1-5.4,75.7,23.3,79.3,63.1h.2Z"/>
  <path class="white-st0" d="M91.3,115.9c-1.2,3.7-2.9,7.1-3.7,11-3.4,14.4-1.2,29.4,6.3,42.1,9.2,15.3,25.6,25.5,43.5,26.8-3.1,17-13.2,32.3-27,42.4-20.2,14.8-48,17.8-70.6,6.5,7.6-29.5-10.2-60.6-39.7-68.2,2.5-28.5,22.1-53,49.7-60.9,13.9-4.1,27.8-3.7,41.6.5v-.2Z"/>
</svg>